<svg xmlns="http://www.w3.org/2000/svg" viewBox="0 0 32 32" width="32" height="32">
  <defs>
    <linearGradient id="logo-grad" x1="0%" y1="0%" x2="100%" y2="100%">
      <stop offset="0%" stop-color="#10B981" />
      <stop offset="100%" stop-color="#3B82F6" />
    </linearGradient>
  </defs>
  <circle cx="16" cy="16" r="15" fill="url(#logo-grad)" />
  <path d="M16 8c-.55 0-1 .45-1 1v5H10c-.55 0-1 .45-1 1s.45 1 1 1h5v5c0 .55.45 1 1 1s1-.45 1-1v-5h5c.55 0 1-.45 1-1s-.45-1-1-1h-5V9c0-.55-.45-1-1-1z" fill="#ffffff" />
  <path d="M16 2C8.268 2 2 8.268 2 16s6.268 14 14 14" fill="none" stroke="#ffffff" stroke-width="1.5" stroke-linecap="round" stroke-dasharray="4 4" opacity="0.5" />
</svg>